
<global>
amp_veltrack=0
ampeg_release=0.50
</global>

<group>
group_label=PP
lpc_hicc1=42
lpc_locc1=0

<region>
hikey=a#3
hivel=127
lokey=a3
loop_end=259663
loop_mode=loop_continuous
loop_start=84408
loop_xfade=21236
lovel=1
lpc=36xBQpzIB8PsoRZDhH6xwhdqlUGH655BueOZvzNxlMHzVepAx/08QFkXhsFv/cZBuesMwR13Y8Bb/RVA609Ov7I8+cAD/j9BlQWlwO70PkDoCHxAFxo0wQorp0CS1WE+
lpc_rms=-20.84
pitch_keycenter=a#3
sample=Cor_accent_sustain_PP_A#3.opus
</region>

<region>
hikey=a#4
hivel=127
lokey=a4
loop_end=254171
loop_mode=loop_continuous
loop_start=82622
loop_xfade=20787
lovel=1
lpc=dj19QjmiSMPGVX9DU0snwzu9X0KL9wbBPiGCQeZsjcEIj/g8aJB7QQ1JEcJ6cjBCc2DLwTlZc0CNXeJALr3swC5PIkDtJZC/nU6XQJqyE8HgPuG/Uv8LQgvQM8Kx44xB
lpc_rms=-19.41
pitch_keycenter=a#4
sample=Cor_accent_sustain_PP_A#4.opus
</region>

<region>
hikey=c4
hivel=127
lokey=b3
loop_end=256184
loop_mode=loop_continuous
loop_start=83277
loop_xfade=20951
lovel=1
lpc=lGdaQreHJ8PPXVlD5/0cw3rJOkI4Yw1CdqwHwsezSD9KmftAZcWlP/qAmcHFcOVBZCTJwRg9f0H/E6HAB4QVQTlShcHYRAJBqwoYP+5/Gb5ixgfBGltSQb/KjcCcY6W/
lpc_rms=-21.21
pitch_keycenter=c4
sample=Cor_accent_sustain_PP_C4.opus
</region>

<region>
hikey=c5
hivel=127
lokey=b4
loop_end=259508
loop_mode=loop_continuous
loop_start=84357
loop_xfade=21223
lovel=1
lpc=08k1QsvC6sLLyOJChFARwtd/BMIePjdCSb97wRcmjECnLCTBbJobQda+M8FrJTZBwWbCwNGAC8A+s8dAeEMgQFOqU8CEt6zAjMbNQGX6cz5ZGCHBnZsxQegPk8AJzdI/
lpc_rms=-26.39
pitch_keycenter=c5
sample=Cor_accent_sustain_PP_C5.opus
</region>

<region>
hikey=d4
hivel=127
lokey=c#4
loop_end=257733
loop_mode=loop_continuous
loop_start=83780
loop_xfade=21078
lovel=1
lpc=cdI2Qqs9BsOOOxpD86atwlYeOkEwlKlBRdoCwPB4LcHfNNbA81JJQfxWv8CcKdq/pLEfQRNBhsHo5OBBMNTZwfJt70CzGUc+Ow/JQE4V9sA7+QTAaTqsQSmt0MEe6h1B
lpc_rms=-23.11
pitch_keycenter=d4
sample=Cor_accent_sustain_PP_D4.opus
</region>

<region>
hikey=d5
hivel=127
lokey=c#5
loop_end=256895
loop_mode=loop_continuous
loop_start=83508
loop_xfade=21009
lovel=1
lpc=IEqIQh4iMsPRYDBDntR5wkXkIsJOYHxCb8ItwR5Ij8GCHSZAE0bhwL9lWkHvw50+4QD3vxq5bsBUHbhALWaYPwqLSsH4bj6/zEUEQiKgBMLy4eO//1gGQjAOEsKXfoJB
lpc_rms=-21.81
pitch_keycenter=d5
sample=Cor_accent_sustain_PP_D5.opus
</region>

<region>
hivel=127
key=e3
loop_end=265584
loop_mode=loop_continuous
loop_start=86332
loop_xfade=21720
lovel=1
lpc=CvdzQuPCMMMm+0JDslPgwmT6ZkJ020PC2z5LQmuHKMJXVr1B0CEdwWVUYsAP14dBwaW7wdZVs0GZnUTBZJMBQQS8ecGKDR1BqYXSPwY/SEDv8fPAir4LQSh7MsEgx7VA
lpc_rms=-22.83
sample=Cor_accent_sustain_PP_E3.opus
</region>

<region>
hikey=e4
hivel=127
lokey=d#4
loop_end=258459
loop_mode=loop_continuous
loop_start=84016
loop_xfade=21137
lovel=1
lpc=9ifqQROIm8LOlZ5C75gYwg93779pJWxBWElBQCqTIcEjiPE/LJDFQCPFh8EckHxBH7TOwGenO8BdcMBA7Bw3QPI9Z8C7ode/lbfZP1YXSL8JIKq/pc2Yvy7EskDMNjnA
lpc_rms=-26.31
pitch_keycenter=e4
sample=Cor_accent_sustain_PP_E4.opus
</region>

<region>
hikey=e5
hivel=127
lokey=d#5
loop_end=258079
loop_mode=loop_continuous
loop_start=83893
loop_xfade=21106
lovel=1
lpc=a9vfQSMAgMJZP4BCOZ36wZOWrMDfMn9B+CtivontAcF9syVBBaSswInGC8BQO8o/44QDQJjzJcHAt4dBFIebwAZ1qcAHv/BAq9KVwID9p77NbdE+Ro8gQJEUcsA/iIRA
lpc_rms=-29.35
pitch_keycenter=e5
sample=Cor_accent_sustain_PP_E5.opus
</region>

<region>
hikey=f#3
hivel=127
lokey=f3
loop_end=256393
loop_mode=loop_continuous
loop_start=83345
loop_xfade=20968
lovel=1
lpc=72KAQjOsNcPApUxDSHsEw0uBZUKh4AXCo+OdQpP5uMK+jjhCJSWDv2SausHmlLBAJaM+QYmBOsCy8YU/BmL2QKytksHxfiRB6KwTQeAdv8EuhllBzzaXQCc74cBRJg5A
lpc_rms=-23.19
pitch_keycenter=f#3
sample=Cor_accent_sustain_PP_F#3.opus
</region>

<region>
hikey=f#4
hivel=127
lokey=f4
loop_end=261257
loop_mode=loop_continuous
loop_start=84926
loop_xfade=21366
lovel=1
lpc=LztaQoZXFMPZtBtD3VGiwtrLEUF3JQJBIc39QelaL8IA511BI2r8QL1cncDh2mzBQyuQQSTdA8HAhClAG074P5GvlECoQT7B0p/XQKDWPMAdM+Q/yuLsvVj/vj/ZuYy/
lpc_rms=-23.21
pitch_keycenter=f#4
sample=Cor_accent_sustain_PP_F#4.opus
</region>

<region>
hikey=D6
hivel=127
lokey=f5
loop_end=257493
loop_mode=loop_continuous
loop_start=83702
loop_xfade=21058
lovel=1
lpc=y/f/Qf6km8I5lrhCD/dWwrcBmr8SMbNBYnejvut3msFGX4NBWLjmQE0DqMF4NiRBFcJAQTVxpcEVGjdBHCIYQU+xh8F9dk5BoM4Ov3w6v8DaHUNAmQgzQNZhVsDc9ZNA
lpc_rms=-28.71
pitch_keycenter=F#5
sample=Cor_accent_sustain_PP_F#5.opus
</region>

<region>
hikey=g#3
hivel=127
lokey=g3
loop_end=253184
loop_mode=loop_continuous
loop_start=82302
loop_xfade=20706
lovel=1
lpc=5g8kQhBS2cLkHeJCGUd2wq6BaUH/MHvAfr7CQUiAwcGXKLJAmtyKQElDc8HmW4dBWar6wKOBk0A0qYDAbNULQXBsYMFATB5Bo3/AwGiNrECdMW/AJe7BvvpKEkBvdme+
lpc_rms=-24.72
pitch_keycenter=g#3
sample=Cor_accent_sustain_PP_G#3.opus
</region>

<region>
hikey=g#4
hivel=127
lokey=g4
loop_end=257600
loop_mode=loop_continuous
loop_start=83737
loop_xfade=21067
lovel=1
lpc=N9p/QpJuLsM1RzND4UvEwtN4KUI+ip/BhFBkQSfMA0AHSNnBz679QUXUmMHPw59BIFvowc6SgkHh3ClAlioVwbWgEz/zKnRBHy5uwSWioECWzXU/pymBQIvDWcEmwQRB
lpc_rms=-22.96
pitch_keycenter=g#4
sample=Cor_accent_sustain_PP_G#4.opus
</region>
</group>

<group>
group_label=MF
lpc_hicc1=84
lpc_locc1=43
volume=-6.0

<region>
hikey=a#3
hivel=127
lokey=a3
loop_end=252950
loop_mode=loop_continuous
loop_start=82225
loop_xfade=20687
lovel=1
lpc=7TEQQickxMKdncdCytgvwjbJUkDVFaxACU5YQPkMccHPEIFBN7U5vo5KasHFii9BbKoqQNrwTcFRdDlBC68APuBjkMB627TAUuAtQY+OqMDQ6DQ+rGxqP3p7Yz83E52/
lpc_rms=-21.82
pitch_keycenter=a#3
sample=Cor_accent_sustain_MF_A#3.opus
</region>

<region>
hikey=a#4
hivel=127
lokey=a4
loop_end=260310
loop_mode=loop_continuous
loop_start=84618
loop_xfade=21289
lovel=1
lpc=Eh8tQpUEBsMrQyVDp7rJwtw3vEFChDZBI9qgP3JS5MGQ7PdBnkhjwauqTsCiMCVBsDX6QIo7EcKyrihCYY/awb+ahUFwE3zBN8g8QeslGsAiMYZAVQRbwZyKJ0Ffgei/
lpc_rms=-19.85
pitch_keycenter=a#4
sample=Cor_accent_sustain_MF_A#4.opus
</region>

<region>
hikey=c4
hivel=127
lokey=b3
loop_end=254822
loop_mode=loop_continuous
loop_start=82834
loop_xfade=20840
lovel=1
lpc=ADxDQgT4D8MlJSRDrD2qwtJZy0BTrsVBBiRBwbp6gMHuxsNBwmQrwZGLxMCSmJxBEPrCwW5vG0FcWBhBKFcIwUe7P8A9mNNAGpzWwJDN+0BIGwHBDGrNQHdUMcBR2lw+
lpc_rms=-20.03
pitch_keycenter=c4
sample=Cor_accent_sustain_MF_C4.opus
</region>

<region>
hikey=c5
hivel=127
lokey=b4
loop_end=259556
loop_mode=loop_continuous
loop_start=84373
loop_xfade=21227
lovel=1
lpc=tMAEQvc3wMKYVehCaBWPwiYcoUBOUP5BDIGtwYZdvUDSLfrAsGuUQXwQ0cHEes1BYv2bwQgf/j/XO4FBgTiPwaxmCUGFZM0/Zu6EwJ+4qUAsurvAO2IyQH3lZsDRQFNA
lpc_rms=-25.98
pitch_keycenter=c5
sample=Cor_accent_sustain_MF_C5.opus
</region>

<region>
hikey=d4
hivel=127
lokey=c#4
loop_end=261701
loop_mode=loop_continuous
loop_start=85070
loop_xfade=21402
lovel=1
lpc=uNNCQjM4CsPZSxFDuMWHwno8N0AhzLxBMEoswX2M8sDSg7pAe8uHwD/6UkBCLd+/NP19QMp39MATay1BEUVnwD78mcB/mQDAAynZQPsxKz9W5wHBDg9PQXxcOcH3+H9A
lpc_rms=-19.06
pitch_keycenter=d4
sample=Cor_accent_sustain_MF_D4.opus
</region>

<region>
hikey=d5
hivel=127
lokey=c#5
loop_end=253344
loop_mode=loop_continuous
loop_start=82354
loop_xfade=20719
lovel=1
lpc=8WiRQmzfP8N+UE9D28TPwitjqcEzL4lCjGp6wcuQ7MGb/shB3Bd/QB2d9MHuUNJBTOl2wFWYt8GJWB5CWFrOwdhopD89u49B6H0uwYj6sMC1DgVAv90/QeBJrMEqB2NB
lpc_rms=-20.31
pitch_keycenter=d5
sample=Cor_accent_sustain_MF_D5.opus
</region>

<region>
hivel=127
key=e3
loop_end=262781
loop_mode=loop_continuous
loop_start=85421
loop_xfade=21491
lovel=1
lpc=3gJ6Qh6CQMOimmxDILUYw9J/hUKe1iLCW4weQvj4rcFnQ+XAtdOlQeKIQsHwQtTAG9TGQUSt/8GDxapB/J4Rv8D6acEKxyJBoAoAQFL5G0AhXGPB9lmEQedgMsHIrXhA
lpc_rms=-19.41
sample=Cor_accent_sustain_MF_E3.opus
</region>

<region>
hikey=e4
hivel=127
lokey=d#4
loop_end=259653
loop_mode=loop_continuous
loop_start=84404
loop_xfade=21235
lovel=1
lpc=hULEQRT6icIs0ZZCI0MXwjaBub/enJ1B0yU7wZrsicAD3S9BECwfwVNJUUDXVClAW4sRwJSvdMBNCiVBfP/jwDs6SsBZVA1B32jgwIdsVUCOuYfAs3LLQIkLe8BkY1w/
lpc_rms=-24.95
pitch_keycenter=e4
sample=Cor_accent_sustain_MF_E4.opus
</region>

<region>
hikey=e5
hivel=127
lokey=d#5
loop_end=251370
loop_mode=loop_continuous
loop_start=81712
loop_xfade=20557
lovel=1
lpc=Bw47Qnm10MK678hCY7swwvZIiMHyvwpCX/vwwHrHAcFEvV9BXBhDwJ9Ti8Fs4JRBC+7FwOpe8MBONx9BFTXaQPUsNMFXNi9BnevKwNbTGEBoMArBmfk0QfF/DMECRf5A
lpc_rms=-23.51
pitch_keycenter=e5
sample=Cor_accent_sustain_MF_E5.opus
</region>

<region>
hikey=f#3
hivel=127
lokey=f3
loop_end=259494
loop_mode=loop_continuous
loop_start=84353
loop_xfade=21222
lovel=1
lpc=HiN/Qs4bNsNhOFVD1HMZw4dGj0L3mZvA/2dlv6r8W8FlPc5B7XzzwfaOHUE0OXBA7KZDwYBL+kDxIJ1BGpvWwe8NIEForoFAxzZhv93pMMHWlzZBgf62wP1jF0CRP2i+
lpc_rms=-21.14
pitch_keycenter=f#3
sample=Cor_accent_sustain_MF_F#3.opus
</region>

<region>
hikey=f#4
hivel=127
lokey=f4
loop_end=253694
loop_mode=loop_continuous
loop_start=82467
loop_xfade=20748
lovel=1
lpc=NBJPQhdIF8ORyTlDnPP6wgdTt0HzhQhCdXJNQGDUTsLHX1FCvdtNwVC7uMGPgylBbH+jQSzxEMKP8fVB5JZswdcKDUGvHczAPx0eQHCO8r/iO7RAgelUwURvYkHovKXA
lpc_rms=-21.52
pitch_keycenter=f#4
sample=Cor_accent_sustain_MF_F#4.opus
</region>

<region>
hikey=D6
hivel=127
lokey=f5
loop_end=253857
loop_mode=loop_continuous
loop_start=82520
loop_xfade=20761
lovel=1
lpc=7xnJQhT4SsOCOkNDZlOpwkVY0cGCrIFCdsr6wUSON0Gkv/k/J8SEQci6wcG8ykZBcI5zQOIRrcGpAS9Cyoa9wWrAxkDrjp9BbiCRwfTMgMCtsTlBiHthPxlieMCQAX1B
lpc_rms=-18.74
pitch_keycenter=F#5
sample=Cor_accent_sustain_MF_F#5.opus
</region>

<region>
hikey=g#3
hivel=127
lokey=g3
loop_end=261457
loop_mode=loop_continuous
loop_start=84991
loop_xfade=21382
lovel=1
lpc=gCc1QuMR+sJeoANDyYKAwtl0dEA/IqZBGnwBwVnYH8GACUBAtYkhQdNhVsFS60pBhkoTwYs4MECYJP9AnJE4wfLFnMBoDbFBN6mQwR8Bj0CyUDJAWebswKvT10Aa76K/
lpc_rms=-22.97
pitch_keycenter=g#3
sample=Cor_accent_sustain_MF_G#3.opus
</region>

<region>
hikey=g#4
hivel=127
lokey=g4
loop_end=254851
loop_mode=loop_continuous
loop_start=82843
loop_xfade=20842
lovel=1
lpc=LdiFQnzhOcMGkUxDNDYFwzgBi0ItNybC8Lo7Qm6HDcK41D9AmmWOQexOoMHWspJB2eR5wWwJdECJvk6+tByovgb8pMANDYBBeMg1wTCucUARTpxAccu/Pgnnj8FFPz5B
lpc_rms=-19.77
pitch_keycenter=g#4
sample=Cor_accent_sustain_MF_G#4.opus
</region>
</group>

<group>
group_label=FF
lpc_hicc1=127
lpc_locc1=85

<region>
hikey=a#3
hivel=127
lokey=a3
loop_end=256486
loop_mode=loop_continuous
loop_start=83375
loop_xfade=20976
lovel=1
lpc=3O4BQrcXt8Lu+9pCooiYwg6K+0EwEoTAaWxvv5T93EAzhIrBj4HDQSZ5zMHXoIFBvnkhQERMh8FJGYZBsjXewIKQf78voRi/n7qDQBkVLcD3tJo/fMuQPpKsWb/XLeU9
lpc_rms=-24.34
pitch_keycenter=a#3
sample=Cor_accent_sustain_FF_A#3.opus
</region>

<region>
hikey=a#4
hivel=127
lokey=a4
loop_end=255439
loop_mode=loop_continuous
loop_start=83035
loop_xfade=20890
lovel=1
lpc=/vgOQsf53MJC/Q1D64DNwg8wQUJBiRzB03MFwdmiQUHNpxPBqYh6QEaNr8ABvkBB6lNEwWtcTUDo/uJAja86wfAnWEHhKFDBu3gyQV21IsFLaAxB/gDdwDz5iUCsNX2/
lpc_rms=-20.15
pitch_keycenter=a#4
sample=Cor_accent_sustain_FF_A#4.opus
</region>

<region>
hikey=c4
hivel=127
lokey=b3
loop_end=247121
loop_mode=loop_continuous
loop_start=80331
loop_xfade=20210
lovel=1
lpc=2scAQi72wsIitfBC3M6awk1fs0GrHZpADWYMwKUSrMDRi8VAmSUiwFbiCcFJx4hBTURAwU540z8DhJo/cL+tQKFyK8G2yuxAV7iAPzJMIsFgkmtBwHlDweDM2EBU0fW/
lpc_rms=-22.62
pitch_keycenter=c4
sample=Cor_accent_sustain_FF_C4.opus
</region>

<region>
hikey=c5
hivel=127
lokey=b4
loop_end=261850
loop_mode=loop_continuous
loop_start=85118
loop_xfade=21415
lovel=1
lpc=ZGYAQoEXtsIhAdFC31NwwvcCC0AXTPBBpvqQwYKEaUBYEQnB/1sqQbHEOcHa6npAv9h6QblzqMGI6SdBHl6SQB2XX8EfnStBck1jwCiQxj+f1dPAFa9FQdyOFsHszj1A
lpc_rms=-24.05
pitch_keycenter=c5
sample=Cor_accent_sustain_FF_C5.opus
</region>

<region>
hikey=d4
hivel=127
lokey=c#4
loop_end=255133
loop_mode=loop_continuous
loop_start=82935
loop_xfade=20865
lovel=1
lpc=bhJEQuFQE8M4ZzJDFPXSwnRN0UChhzlCzwECwsp+KkEL7GTBWxVSQac6gMCwzuHAzDq5QY6978HCV8xBun1Jwa6nr8ATA9lAEuWbQFhk1sDZ1aLA+lSNQQ8GZsF8FVZA
lpc_rms=-19.38
pitch_keycenter=d4
sample=Cor_accent_sustain_FF_D4.opus
</region>

<region>
hikey=d5
hivel=127
lokey=c#5
loop_end=253223
loop_mode=loop_continuous
loop_start=82314
loop_xfade=20709
lovel=1
lpc=yifjQX5EisKqqJJCXlcVwsmIN8GkbPZBAm5QwfmVGcCAsIFAN1lwQDFZB8GEpDBAbeCPQJP7C8FncNxAHCR0QPAu9cC20gtADlWDQInygcBRhBHA9VWnQGtLicAVRVBA
lpc_rms=-26.94
pitch_keycenter=d5
sample=Cor_accent_sustain_FF_D5.opus
</region>

<region>
hivel=127
key=e3
loop_end=257485
loop_mode=loop_continuous
loop_start=83700
loop_xfade=21058
lovel=1
lpc=3uS+QpnVmsNztNFDUcmgw8eJIEPOE13CnEKVQVYQCMHczYtA8WJfv84OkMB/+gDA/csnQTHFML7Qk13B8kqRQYo0pcHFBpdBQVYgwYcngUBe2Cq/ue3Sv9nIbb4zPKM/
lpc_rms=-13.51
sample=Cor_accent_sustain_FF_E3.opus
</region>

<region>
hikey=e4
hivel=127
lokey=d#4
loop_end=255032
loop_mode=loop_continuous
loop_start=82902
loop_xfade=20857
lovel=1
lpc=Jc3sQfqGq8JnIMZCGrNlwjg8N0ExqAxBjTspwL9rgcATEFtAtZ8pwJDLLsDuWMFASyZHwM5xz8ARUmxB4loGwTI4hz8ZJh++QFtLwKILkEBSkLzATosvQd7yIcH5q2BA
lpc_rms=-24.31
pitch_keycenter=e4
sample=Cor_accent_sustain_FF_E4.opus
</region>

<region>
hikey=e5
hivel=127
lokey=d#5
loop_end=259209
loop_mode=loop_continuous
loop_start=84260
loop_xfade=21199
lovel=1
lpc=j/BGQtW4y8I3zbRCGrcgwnYac8EBZBBC9refwSaigkFp1Le/uH7YwCsSHMDHJ5a/3GcOQaj+OcGaSYdASUGEQaLOVMFD7d5AXSpUwPo5m7+uwLQ+qMPEwJTGAUHdDCRA
lpc_rms=-20.90
pitch_keycenter=e5
sample=Cor_accent_sustain_FF_E5.opus
</region>

<region>
hikey=f#3
hivel=127
lokey=f3
loop_end=255938
loop_mode=loop_continuous
loop_start=83197
loop_xfade=20931
lovel=1
lpc=qPFMQjiyEsPPsi9Do9L8wqoYRkICCAtBbkrkwBy/5sBmjxxByfoGwfEkTsA0tlVA/OFBQB7NB8HzvlxBfemRwIBngMD1+ORAaLsEwQ8xpEB8dN/AlIaGQIq2R0BhVw7A
lpc_rms=-20.63
pitch_keycenter=f#3
sample=Cor_accent_sustain_FF_F#3.opus
</region>

<region>
hikey=f#4
hivel=127
lokey=f4
loop_end=254690
loop_mode=loop_continuous
loop_start=82791
loop_xfade=20829
lovel=1
lpc=1k0cQhu64MJxiglDALrTwgQlXkLlxIjBCXBSQXs/SMFZMSJAAOP7Pzw4lL99MI/AtJY4QEZ6cUC3+Gm/FugZwC9iF0DCAvo/HY48wTcuLkG4cpW/AP21wOeQBkHt3oHA
lpc_rms=-24.18
pitch_keycenter=f#4
sample=Cor_accent_sustain_FF_F#4.opus
</region>

<region>
hikey=D6
hivel=127
lokey=f5
loop_end=263849
loop_mode=loop_continuous
loop_start=85768
loop_xfade=21578
lovel=1
lpc=ln8cQvqTqsJkxqxCu38hwq+1isCAoZ9BNTNMwXxITEFOG2rBQnexQdXtp8EeJZZAo/dWQYMFkcEj25JBGn8nwWe8kUCi/flAg2ZVwbxHRUFb60nB5Y9vQSF0GMGgKNVA
lpc_rms=-22.74
pitch_keycenter=F#5
sample=Cor_accent_sustain_FF_F#5.opus
</region>

<region>
hikey=g#3
hivel=127
lokey=g3
loop_end=262697
loop_mode=loop_continuous
loop_start=85394
loop_xfade=21484
lovel=1
lpc=4XioQv2nbsNlnYpDsfU5w6gyj0ITh4rARpZ5QUkN4cGWkwNBjHcFQYUxu8HEyuJBjNdvwfcYcMArrMFBoth6wWldRMHttidBJgeIQEZA5cAa6H2+aEMQQUOQ3MATVr8/
lpc_rms=-15.89
pitch_keycenter=g#3
sample=Cor_accent_sustain_FF_G#3.opus
</region>

<region>
hikey=g#4
hivel=127
lokey=g4
loop_end=253888
loop_mode=loop_continuous
loop_start=82531
loop_xfade=20763
lovel=1
lpc=XkfhQvA+lsPyFKZDLG5iw3m150JTwDPCMUioQYVIkb3hhtTBQITKQRHLz79Q+2zA0YkJwc/sdEFIfdxAka/nwS3lkUHvQb3A7QorvrHrHEGI0wDB++oVvxCwYsBdMK5A
lpc_rms=-13.73
pitch_keycenter=g#4
sample=Cor_accent_sustain_FF_G#4.opus
</region>
</group>